<svg width="50" height="50" viewBox="0 0 50 50" fill="none" xmlns="http://www.w3.org/2000/svg">
<g clip-path="url(#clip0)">
<path d="M25.0001 50.0001C38.8072 50.0001 50.0001 38.8072 50.0001 25.0001C50.0001 11.1929 38.8072 0 25.0001 0C11.1929 0 0 11.1929 0 25.0001C0 38.8072 11.1929 50.0001 25.0001 50.0001Z" fill="#D42428"/>
<path d="M42.6768 7.31961C52.4399 17.0836 52.4407 32.9133 42.6768 42.6773C32.9136 52.4404 17.0831 52.4408 7.31909 42.6773L42.6768 7.31961Z" fill="#CC202D"/>
<path d="M49.6192 29.3254L32.7942 12.5005L31.437 13.8576L30.0798 12.5005L28.5924 13.9879L29.5915 14.987L29.2654 15.3131L26.6746 12.7223L26.564 12.8336L23.0728 9.34241L21.5854 10.8299L21.9924 11.2369L21.3947 11.8345L18.8781 9.31793L17.8348 10.3612L20.2882 16.2696L19.1833 20.8058L22.204 23.8272L14.5639 24.3617L14.4482 37.6196L26.743 49.9293C38.2628 49.111 47.669 40.4946 49.6192 29.3254Z" fill="#BA202E"/>
<path d="M33.942 30.7967H32.329L32.3369 29.8604C32.3369 29.4438 32.6784 29.104 33.0964 29.104H33.1998C33.6179 29.104 33.9608 29.4439 33.9608 29.8604L33.942 30.7967ZM27.8947 28.7901C27.4869 28.7901 27.1522 29.0652 27.1522 29.4015V33.955C27.1522 34.2914 27.4869 34.5649 27.8947 34.5649C28.3056 34.5649 28.6403 34.2914 28.6403 33.955V29.4011C28.6403 29.0652 28.3056 28.7901 27.8947 28.7901ZM37.7135 26.2435V34.9053C37.7135 36.9833 35.9119 38.6832 33.7087 38.6832H17.2433C15.0397 38.6832 13.2385 36.9829 13.2385 34.9053V26.2435C13.2385 24.1654 15.0398 22.4649 17.2433 22.4649H33.7091C35.9118 22.4649 37.7135 24.1659 37.7135 26.2435ZM18.3412 35.846L18.3404 26.7216L20.3813 26.7223V25.3699L14.9404 25.3616V26.6904L16.639 26.6955V35.8456H18.3412V35.846ZM24.4599 28.0811H22.7581V32.9532C22.7581 33.6583 22.8003 34.0107 22.7557 34.1347C22.6168 34.5125 21.9947 34.9136 21.7526 34.1758C21.7116 34.0463 21.7479 33.6563 21.7471 32.9863L21.7392 28.0807H20.0469L20.0532 32.9089C20.054 33.6491 20.0362 34.201 20.0587 34.4521C20.1002 34.895 20.0848 35.4117 20.4965 35.7058C21.2616 36.2581 22.7293 35.6237 23.0964 34.8353L23.0932 35.8412L24.4595 35.8432V28.0811H24.4599ZM29.904 33.6602L29.9009 29.6048C29.8993 28.0589 28.7434 27.1333 27.173 28.3839L27.1801 25.3687L25.4799 25.3714L25.4715 35.7777L26.8694 35.7571L26.9965 35.1085C28.7836 36.7492 29.9071 35.6258 29.904 33.6602ZM35.2309 33.123L33.9542 33.1297C33.9542 33.1807 33.9519 33.2387 33.951 33.3026V34.0148C33.951 34.3957 33.6364 34.706 33.2539 34.706H33.004C32.6207 34.706 32.3061 34.3957 32.3061 34.0148V33.9358V33.1519V32.1413H35.2281V31.0414C35.2281 30.2382 35.2072 29.4348 35.1409 28.9753C34.9321 27.5214 32.8919 27.2909 31.8609 28.035C31.5372 28.2675 31.2904 28.5785 31.146 28.997C31.0011 29.4151 30.9293 29.9855 30.9293 30.7111V33.129C30.9303 37.1483 35.8123 36.5802 35.2309 33.123ZM28.685 19.9949C28.7722 20.2088 28.9084 20.3813 29.0943 20.5124C29.2763 20.6402 29.5108 20.7054 29.7906 20.7054C30.0358 20.7054 30.2532 20.6391 30.442 20.5021C30.631 20.3659 30.7905 20.1631 30.92 19.8915L30.8876 20.5594H32.7844V12.4921H31.291V18.7708C31.291 19.1103 31.0104 19.3886 30.6681 19.3886C30.3281 19.3886 30.0467 19.1103 30.0467 18.7708V12.4921H28.4885V17.9331C28.4885 18.6263 28.5008 19.0885 28.5217 19.3231C28.544 19.5559 28.5973 19.7789 28.685 19.9949ZM22.9366 15.4386C22.9366 14.6642 23.0013 14.0597 23.1292 13.6239C23.2579 13.1893 23.4908 12.8399 23.8264 12.577C24.1618 12.3121 24.5914 12.1799 25.1125 12.1799C25.5511 12.1799 25.9273 12.2663 26.2419 12.4349C26.5565 12.6047 26.8008 12.8245 26.969 13.0965C27.1419 13.3693 27.258 13.65 27.3207 13.9369C27.3847 14.2275 27.4155 14.6669 27.4155 15.2578V17.2983C27.4155 18.0467 27.3855 18.597 27.3275 18.9468C27.2702 19.2974 27.1463 19.6223 26.9544 19.9266C26.765 20.2283 26.5202 20.4536 26.2233 20.5973C25.9241 20.743 25.5819 20.814 25.1942 20.814C24.7624 20.814 24.3975 20.7544 24.0979 20.6293C23.7971 20.5053 23.5642 20.3181 23.3988 20.0699C23.2306 19.8212 23.1134 19.5184 23.0427 19.1655C22.9708 18.8122 22.9369 18.2821 22.9369 17.5747V15.4386H22.9366ZM24.4216 18.6436C24.4216 19.0999 24.7622 19.473 25.1763 19.473C25.5904 19.473 25.9288 19.1004 25.9288 18.6436V14.3487C25.9288 13.8924 25.5904 13.5194 25.1763 13.5194C24.7622 13.5194 24.4216 13.892 24.4216 14.3487V18.6436ZM19.1717 20.812H20.9619L20.9635 14.6246L23.0782 9.32414H21.1207L19.9964 13.2618L18.8559 9.3139H16.9192L19.1689 14.6282L19.1717 20.812Z" fill="white"/>
</g>
<defs>
<clipPath id="clip0">
<rect width="50" height="50" fill="white"/>
</clipPath>
</defs>
</svg>
