<svg width="60" height="60" viewBox="0 0 60 60" fill="none" xmlns="http://www.w3.org/2000/svg">
<circle cx="30" cy="30" r="30" fill="#364F6B"/>
<path d="M22.6816 25.0469V35H21.3691V26.127H17.8008L17.623 30.0713C17.5547 31.3929 17.418 32.3864 17.2129 33.0518C17.0124 33.7171 16.7161 34.207 16.3242 34.5215C15.9323 34.8314 15.4082 34.9909 14.752 35H14.3213V33.9268L14.5947 33.9131C15.0186 33.8812 15.3444 33.7445 15.5723 33.5029C15.8001 33.2568 15.9733 32.8672 16.0918 32.334C16.2103 31.8008 16.2946 30.9805 16.3447 29.873L16.5498 25.0469H22.6816ZM24.5342 31.2334C24.5342 30.5088 24.6755 29.8571 24.958 29.2783C25.2451 28.6995 25.6416 28.2529 26.1475 27.9385C26.6579 27.624 27.2389 27.4668 27.8906 27.4668C28.8978 27.4668 29.7113 27.8154 30.3311 28.5127C30.9554 29.21 31.2676 30.1374 31.2676 31.2949V31.3838C31.2676 32.1038 31.1286 32.751 30.8506 33.3252C30.5771 33.8949 30.1829 34.3392 29.668 34.6582C29.1576 34.9772 28.5697 35.1367 27.9043 35.1367C26.9017 35.1367 26.0882 34.7881 25.4639 34.0908C24.8441 33.3936 24.5342 32.4707 24.5342 31.3223V31.2334ZM25.8057 31.3838C25.8057 32.2041 25.9948 32.8626 26.373 33.3594C26.7559 33.8561 27.2663 34.1045 27.9043 34.1045C28.5469 34.1045 29.0573 33.8538 29.4355 33.3525C29.8138 32.8467 30.0029 32.1403 30.0029 31.2334C30.0029 30.4222 29.8092 29.766 29.4219 29.2646C29.0391 28.7588 28.5286 28.5059 27.8906 28.5059C27.2663 28.5059 26.7627 28.7542 26.3799 29.251C25.9971 29.7477 25.8057 30.4587 25.8057 31.3838ZM37.6318 28.6494H34.2207V35H32.9492V27.6035H37.6318V28.6494ZM38.2607 31.2334C38.2607 30.5088 38.402 29.8571 38.6846 29.2783C38.9717 28.6995 39.3682 28.2529 39.874 27.9385C40.3844 27.624 40.9655 27.4668 41.6172 27.4668C42.6243 27.4668 43.4378 27.8154 44.0576 28.5127C44.682 29.21 44.9941 30.1374 44.9941 31.2949V31.3838C44.9941 32.1038 44.8551 32.751 44.5771 33.3252C44.3037 33.8949 43.9095 34.3392 43.3945 34.6582C42.8841 34.9772 42.2962 35.1367 41.6309 35.1367C40.6283 35.1367 39.8148 34.7881 39.1904 34.0908C38.5706 33.3936 38.2607 32.4707 38.2607 31.3223V31.2334ZM39.5322 31.3838C39.5322 32.2041 39.7214 32.8626 40.0996 33.3594C40.4824 33.8561 40.9928 34.1045 41.6309 34.1045C42.2734 34.1045 42.7839 33.8538 43.1621 33.3525C43.5404 32.8467 43.7295 32.1403 43.7295 31.2334C43.7295 30.4222 43.5358 29.766 43.1484 29.2646C42.7656 28.7588 42.2552 28.5059 41.6172 28.5059C40.9928 28.5059 40.4893 28.7542 40.1064 29.251C39.7236 29.7477 39.5322 30.4587 39.5322 31.3838Z" fill="white"/>
</svg>
