<svg width="100" height="100" viewBox="0 0 100 100" fill="none" xmlns="http://www.w3.org/2000/svg">
<circle cx="50" cy="50" r="50" fill="#364F6B"/>
<path d="M42.6816 45.0469V55H41.3691V46.127H37.8008L37.623 50.0713C37.5547 51.3929 37.418 52.3864 37.2129 53.0518C37.0124 53.7171 36.7161 54.207 36.3242 54.5215C35.9323 54.8314 35.4082 54.9909 34.752 55H34.3213V53.9268L34.5947 53.9131C35.0186 53.8812 35.3444 53.7445 35.5723 53.5029C35.8001 53.2568 35.9733 52.8672 36.0918 52.334C36.2103 51.8008 36.2946 50.9805 36.3447 49.873L36.5498 45.0469H42.6816ZM44.5342 51.2334C44.5342 50.5088 44.6755 49.8571 44.958 49.2783C45.2451 48.6995 45.6416 48.2529 46.1475 47.9385C46.6579 47.624 47.2389 47.4668 47.8906 47.4668C48.8978 47.4668 49.7113 47.8154 50.3311 48.5127C50.9554 49.21 51.2676 50.1374 51.2676 51.2949V51.3838C51.2676 52.1038 51.1286 52.751 50.8506 53.3252C50.5771 53.8949 50.1829 54.3392 49.668 54.6582C49.1576 54.9772 48.5697 55.1367 47.9043 55.1367C46.9017 55.1367 46.0882 54.7881 45.4639 54.0908C44.8441 53.3936 44.5342 52.4707 44.5342 51.3223V51.2334ZM45.8057 51.3838C45.8057 52.2041 45.9948 52.8626 46.373 53.3594C46.7559 53.8561 47.2663 54.1045 47.9043 54.1045C48.5469 54.1045 49.0573 53.8538 49.4355 53.3525C49.8138 52.8467 50.0029 52.1403 50.0029 51.2334C50.0029 50.4222 49.8092 49.766 49.4219 49.2646C49.0391 48.7588 48.5286 48.5059 47.8906 48.5059C47.2663 48.5059 46.7627 48.7542 46.3799 49.251C45.9971 49.7477 45.8057 50.4587 45.8057 51.3838ZM57.6318 48.6494H54.2207V55H52.9492V47.6035H57.6318V48.6494ZM58.2607 51.2334C58.2607 50.5088 58.402 49.8571 58.6846 49.2783C58.9717 48.6995 59.3682 48.2529 59.874 47.9385C60.3844 47.624 60.9655 47.4668 61.6172 47.4668C62.6243 47.4668 63.4378 47.8154 64.0576 48.5127C64.682 49.21 64.9941 50.1374 64.9941 51.2949V51.3838C64.9941 52.1038 64.8551 52.751 64.5771 53.3252C64.3037 53.8949 63.9095 54.3392 63.3945 54.6582C62.8841 54.9772 62.2962 55.1367 61.6309 55.1367C60.6283 55.1367 59.8148 54.7881 59.1904 54.0908C58.5706 53.3936 58.2607 52.4707 58.2607 51.3223V51.2334ZM59.5322 51.3838C59.5322 52.2041 59.7214 52.8626 60.0996 53.3594C60.4824 53.8561 60.9928 54.1045 61.6309 54.1045C62.2734 54.1045 62.7839 53.8538 63.1621 53.3525C63.5404 52.8467 63.7295 52.1403 63.7295 51.2334C63.7295 50.4222 63.5358 49.766 63.1484 49.2646C62.7656 48.7588 62.2552 48.5059 61.6172 48.5059C60.9928 48.5059 60.4893 48.7542 60.1064 49.251C59.7236 49.7477 59.5322 50.4587 59.5322 51.3838Z" fill="white"/>
</svg>
